Coordinates
version=1
nRows=11
nColumns=40
inDegrees=yes

Units are S.I. units (second, meters, Newtons, ...)
Angles are in degrees.

endheader
time	pelvis_tilt	pelvis_list	pelvis_rotation	pelvis_tx	pelvis_ty	pelvis_tz	hip_flexion_r	hip_adduction_r	hip_rotation_r	knee_angle_r	knee_angle_r_beta	ankle_angle_r	subtalar_angle_r	mtp_angle_r	hip_flexion_l	hip_adduction_l	hip_rotation_l	knee_angle_l	knee_angle_l_beta	ankle_angle_l	subtalar_angle_l	mtp_angle_l	lumbar_extension	lumbar_bending	lumbar_rotation	arm_flex_r	arm_add_r	arm_rot_r	elbow_flex_r	pro_sup_r	wrist_flex_r	wrist_dev_r	arm_flex_l	arm_add_l	arm_rot_l	elbow_flex_l	pro_sup_l	wrist_flex_l	wrist_dev_l
     44.93000000	     -3.00921509	     -4.90437708	      3.16172748	      1.08423469	      0.92980644	      0.47981665	     10.89004266	      2.62692022	    -15.61761368	     17.86995224	     17.86995224	     10.97866959	     -3.55470298	     -4.55486787	     26.47451949	    -14.09369320	      2.04227832	     64.57142637	     64.57142637	      5.23522149	    -16.94221309	      6.56554895	     -9.08943866	      4.83433873	      1.91048801	     18.37984200	    -21.57405943	     -2.43787554	     77.91591294	     44.97322892	      0.00000000	      0.00000000	      0.42918813	     -9.01473625	     -9.49656932	     26.50423961	     45.35701263	      0.00000000	      0.00000000
     44.94371429	     -3.18790708	     -4.82144498	      3.56804094	      1.08253171	      0.93054166	      0.48070732	     10.29804937	      2.70564348	    -15.96517156	     16.93096464	     16.93096464	     10.90159293	     -3.24379055	     -4.37886565	     27.90425745	    -13.90638522	      2.14961744	     63.56639753	     63.56639753	      5.55340830	    -17.45069420	      6.88985434	     -9.12908850	      4.72651223	      1.88400492	     20.15587084	    -21.65862635	     -2.75744994	     79.50734476	     44.94365089	      0.00000000	      0.00000000	     -0.58509801	     -8.55225082	     -9.38553825	     26.06751575	     45.33244844	      0.00000000	      0.00000000
     44.95742857	     -3.34651403	     -4.69810585	      3.95658980	      1.08084697	      0.93114674	      0.48154366	      9.79026752	      2.70401836	    -16.32547362	     16.21872373	     16.21872373	     10.90065985	     -2.91927846	     -4.33886284	     29.20188972	    -13.68887546	      2.13244182	     62.36821284	     62.36821284	      5.94233164	    -17.81505180	      7.39603028	     -9.21113316	      4.58098001	      1.95970745	     21.84357398	    -21.88426625	     -3.09845040	     81.37642087	     44.90677115	      0.00000000	      0.00000000	     -1.69802650	     -8.09694432	     -9.29111092	     25.92993539	     45.30808555	      0.00000000	      0.00000000
     44.97114286	     -3.49975926	     -4.58384658	      4.34079499	      1.07916343	      0.93165378	      0.48226738	      9.29692621	      2.70283773	    -16.70531887	     15.53319754	     15.53319754	     10.90492190	     -2.56027547	     -4.37206783	     30.38101967	    -13.46814224	      2.05454541	     60.92536152	     60.92536152	      6.44589352	    -18.07555234	      8.23230016	     -9.31190815	      4.45980658	      2.14093618	     23.38570606	    -22.19675321	     -3.49186153	     83.39994840	     44.86860391	      0.00000000	      0.00000000	     -2.83931886	     -7.66371532	     -9.17159837	     26.06875339	     45.28050370	      0.00000000	      0.00000000
     44.98485714	     -3.71185365	     -4.45291844	      4.68908577	      1.07741012	      0.93195551	      0.48282346	      8.94226294	      2.64676976	    -17.09083176	     14.97817990	     14.97817990	     10.86905184	     -2.23545813	     -4.63764881	     31.51976249	    -13.17351226	      1.92502694	     59.25380485	     59.25380485	      7.35539398	    -18.23788009	     10.24338330	     -9.40741892	      4.31218193	      2.63148594	     24.57037704	    -22.83116121	     -4.21020177	     85.67717059	     44.85078568	      0.00000000	      0.00000000	     -3.94487750	     -7.32865099	     -8.62632214	     26.96685759	     45.21608756	      0.00000000	      0.00000000
     44.99857143	     -3.93774766	     -4.37324043	      5.03081793	      1.07560802	      0.93210274	      0.48325582	      8.64884255	      2.66118292	    -17.30528563	     14.47400589	     14.47400589	     10.89451518	     -2.17800254	     -4.57335089	     32.48610854	    -12.95367882	      1.68551608	     57.13041415	     57.13041415	      7.64993410	    -18.43055895	     10.62429058	     -9.40865474	      4.21522917	      2.87300350	     26.30099849	    -23.16569373	     -4.63081665	     86.62334635	     44.84480974	      0.00000000	      0.00000000	     -4.72116614	     -6.94180074	     -8.49196193	     26.70530948	     45.18693612	      0.00000000	      0.00000000
     45.01228571	     -4.18521633	     -4.43469035	      5.40407600	      1.07385763	      0.93199433	      0.48349627	      8.51987350	      2.76971899	    -17.57963874	     14.23411255	     14.23411255	     10.97984555	     -2.23090984	     -4.58114381	     33.35411062	    -12.82739526	      1.50262055	     54.65513570	     54.65513570	      8.00922711	    -18.36459252	     10.91424897	     -9.28923275	      4.32420694	      3.23568551	     27.66473160	    -23.59568899	     -4.96682311	     87.22503702	     44.84343495	      0.00000000	      0.00000000	     -5.38029992	     -6.59782262	     -8.43726563	     26.51025270	     45.16785189	      0.00000000	      0.00000000
     45.02600000	     -4.29323008	     -4.31371606	      5.77632619	      1.07213976	      0.93218837	      0.48334493	      7.89040048	      2.75424813	    -17.99801606	     13.33331395	     13.33331395	     10.93044202	     -1.73339453	     -4.62040989	     33.83550893	    -12.40577547	      1.26276622	     51.79052182	     51.79052182	      8.29402296	    -18.50380855	     11.69626707	     -9.56481445	      4.26384020	      2.95023997	     29.57574592	    -23.38999582	     -5.43148788	     89.22137281	     44.81197406	      0.00000000	      0.00000000	     -6.33505257	     -6.28724350	     -8.09334441	     26.54026963	     45.10900089	      0.00000000	      0.00000000
     45.03971429	     -4.52978410	     -4.24561340	      6.09742627	      1.07037391	      0.93191749	      0.48308847	      7.70042535	      2.70824339	    -18.17468448	     13.01813301	     13.01813301	     11.04756109	     -1.68475707	     -4.70990830	     34.28199969	    -11.95366402	      1.13122566	     48.61092638	     48.61092638	      8.53891347	    -18.38513983	     12.07209309	     -9.53222627	      4.21940305	      3.23223667	     31.07268013	    -23.72843306	     -5.80349966	     89.98982100	     44.80989857	      0.00000000	      0.00000000	     -6.89435772	     -5.99548474	     -7.93141231	     26.49406455	     45.07836141	      0.00000000	      0.00000000
     45.05342857	     -4.73734808	     -4.21392665	      6.43969048	      1.06866468	      0.93155880	      0.48254972	      7.40941083	      2.68268897	    -18.60752143	     12.55541296	     12.55541296	     10.95606705	     -1.37914511	     -5.38320937	     34.47568814	    -11.49289337	      1.00035974	     45.03872975	     45.03872975	      8.24536626	    -18.19922302	     11.05452568	     -9.57687775	      4.25597771	      3.36846370	     32.44764381	    -23.82547942	     -6.48719004	     91.10907427	     44.84830563	      0.00000000	      0.00000000	     -7.73609585	     -5.92622785	     -6.27078156	     27.16195356	     44.87704575	      0.00000000	      0.00000000
     45.06714286	     -5.02384037	     -4.20947678	      6.71503178	      1.06690045	      0.93095640	      0.48190323	      7.29732423	      2.67622964	    -18.75606890	     12.26890067	     12.26890067	     11.08243521	     -1.40992108	     -5.42601603	     34.67227079	    -10.99702463	      0.96436738	     41.43764248	     41.43764248	      8.42128509	    -17.60113920	     11.37034475	     -9.50425014	      4.30244822	      3.57523876	     33.90914974	    -24.09996839	     -6.76672323	     91.64402528	     44.84954400	      0.00000000	      0.00000000	     -8.07379603	     -5.67936421	     -6.13961007	     27.00174771	     44.85779576	      0.00000000	      0.00000000
